<?xml version="1.0" encoding="utf-8"?>
<!-- Generator: Adobe Illustrator 24.2.3, SVG Export Plug-In . SVG Version: 6.00 Build 0)  -->
<svg version="1.1" id="Layer_1" xmlns="http://www.w3.org/2000/svg" xmlns:xlink="http://www.w3.org/1999/xlink" x="0px" y="0px"
	 viewBox="0 0 863.33 620.47" style="enable-background:new 0 0 863.33 620.47;" xml:space="preserve">
<style type="text/css">
	.st0{fill:#6BAEA9;}
	.st1{fill:#F3E9DA;}
	.st2{fill:#F4C974;}
	.st3{fill:#F69578;}
	.st4{fill:none;stroke:#F4C974;stroke-width:1.5;stroke-miterlimit:10;}
	.st5{fill:none;stroke:#F69578;stroke-width:1.5;stroke-miterlimit:10;}
</style>
<g id="BR31R5" transform="translate(-1588.552 -439.585)">
	<g id="Group_1" transform="translate(1663.553 441.585)">
		<path id="Path_28" class="st0" d="M467.64,567.02c-26.41,5.25-53.43,6.76-80.26,4.48c-13.24-1.09-26.4-2.94-39.43-5.54
			c-25.97-5.42-50.98-14.73-74.17-27.62c-59.07-33-101.85-80.35-127.18-140.75c-5.6-13.67-10.19-27.74-13.73-42.08
			c-8.37-31.22-10.75-63.74-7.03-95.85c11.56-93.09,56.58-164.89,133.81-213.42c27.85-17.69,58.62-30.29,90.87-37.2
			c39.74-8.01,80.71-7.61,120.28,1.18c8.34,1.77,16.31,4.25,24.02,6.64l4.3,1.33c3.75,1.25,7.07,3.54,9.57,6.6l0.29,0.33
			c6.05,5.73,6.32,15.27,0.59,21.33c-0.87,0.92-1.85,1.73-2.93,2.4c-0.16,0.12-0.33,0.25-0.49,0.37c-2.69,2.22-5.85,3.79-9.24,4.59
			c-0.6,0.13-1.21,0.22-1.83,0.29c-4.2,0.45-8.32,0.7-12.3,0.95c-5.5,0.34-10.7,0.66-15.61,1.44c-3.32,0.53-6.64,1.13-9.82,1.81
			c-54.65,11.48-92.57,43.46-115.93,97.74c-10.06,23.39-11.15,49.67-3.05,73.81c5.03,16,14.46,31.19,28.86,46.43
			c5.79,6.13,11.09,11.52,16.21,16.47c13.69,13.27,14.56,31.83,2.15,46.18c-5.84,6.81-13.56,11.75-22.19,14.21
			c-0.93,0.27-1.84,0.52-2.75,0.75c0.4,0.72,0.89,1.54,1.41,2.39c1.61,2.54,3.02,5.21,4.19,7.98c3.16,7.57,2.45,16.2-1.9,23.15
			c5.43,4.35,8.72,10.83,9.02,17.78c2.42,27.47,16.39,48.04,44,64.76c7.34,4.12,14.99,7.64,22.9,10.52l3.33,1.33
			c18.41,7.39,39.02,9.63,66.81,7.28c8.31-0.7,16.57-1.92,24.74-3.63c12.12-2.57,24-6.19,35.49-10.83c2.96-1.18,6.02-2.09,9.14-2.73
			c0.87-0.18,1.73-0.34,2.6-0.49c9.03-1.93,17.92,3.83,19.85,12.86c1.02,4.78-0.1,9.76-3.06,13.64c-2.02,2.88-4.38,5.5-7.03,7.81
			c-25.54,22.2-55.14,39.25-87.16,50.2c-8.35,2.89-16.79,5.28-24.95,7.59c-3.64,1.03-7.27,2.06-10.9,3.13
			c-0.39,0.11-0.78,0.21-1.18,0.3L467.64,567.02z M262.6,267.12c2.59-6.68,2.42-13.87-0.48-22.97c-0.28-0.87-0.47-1.75-0.59-2.65
			c-11.83,4.1-22.86,10.24-32.59,18.12C240.15,262.12,251.37,264.62,262.6,267.12L262.6,267.12z"/>
		<path id="Path_29" class="st1" d="M464.84,552.2c-25.04,4.97-50.65,6.41-76.09,4.29c-12.65-1.03-25.24-2.79-37.69-5.28
			c-24.49-5.1-48.07-13.87-69.93-26.03c-55.21-30.84-96.08-74.9-120.62-133.41c-5.3-13.01-9.66-26.38-13.04-40.01
			c-7.91-29.38-10.17-59.99-6.66-90.22c10.82-87.1,52.31-155.66,126.87-202.51c61.61-38.72,128.88-49.08,200-34.03
			c9.14,1.93,18.07,4.88,27.02,7.62c1.52,0.46,2.62,2.28,3.92,3.47c-1.7,1.05-3.32,2.83-5.12,3.02c-9.55,1.01-19.23,0.99-28.68,2.49
			c-65.97,10.48-111.17,47.86-137.25,108.49c-11.48,26.71-12.76,56.71-3.59,84.3c6.3,20.04,17.93,37.07,32.28,52.27
			c5.44,5.76,10.98,11.44,16.68,16.95c7.98,7.73,8.53,17.04,1.23,25.5c-3.94,4.6-9.15,7.93-14.97,9.57c-3.8,1.1-7.7,1.91-11.53,2.88
			c-4.9,1.24-6.88,3.87-5.49,8.71c1.29,3.58,2.94,7.03,4.92,10.29c1.66,3.17,3.85,6.1,5.18,9.4c1.72,4.27,0.62,9.15-2.78,12.26
			c-4.59,4.62-10.35,7.91-16.67,9.52c-8.63,3.1-17.9,4.01-26.97,2.63c-5.46-1.27-10.74-3.24-15.7-5.86c-4.38-2.12-6-2.54-8.15,0.12
			c-2.81,2.96-2.68,7.64,0.28,10.45c0.07,0.07,0.15,0.14,0.23,0.21c2.86,1.95,6.03,3.4,9.38,4.29c8.15,2.25,16.69,2.69,25.02,1.27
			c9.8-1.63,19.49-4.04,29.16-6.41c7.2-1.77,11.63,0.76,12.28,8.13c3.07,34.88,22.46,58.94,51.21,76.35
			c9.11,5.08,18.62,9.41,28.43,12.95c23.76,9.53,48.57,10.44,73.7,8.31c22.19-1.9,43.96-7.13,64.59-15.51
			c2.79-1.09,5.7-1.87,8.66-2.34c2.39-0.41,3.24,1.02,1.86,3c-1.31,1.86-2.84,3.56-4.56,5.06c-24.07,20.95-51.99,37.02-82.19,47.32
			C488.48,545.68,476.58,548.71,464.84,552.2z M263.68,224.76c-1.71,0.63-2.92,1.12-4.14,1.51c-19.18,6.11-36.58,16.82-50.67,31.19
			c-2.06,2.17-3.81,4.62-5.18,7.28c-1.33,2.46-0.34,4.43,2.48,5.2c1.16,0.32,2.33,0.59,3.5,0.85c23.77,5.3,47.53,10.58,71.31,15.86
			c0.85,0.19,2.16,0.27,2.59-0.2c0.48-0.8,0.53-1.78,0.14-2.62c-0.97-1.76-2.16-3.39-3.55-4.84c-1.49-1.29-3.07-2.45-4.74-3.49
			c5.59-11.81,4.96-23.8,1.09-35.93c2.08-1.01,3.95-1.79,5.69-2.79c4.51-2.03,7.37-6.57,7.26-11.52c-0.16-4.2-1.46-5.44-5.59-4.96
			c-2.74,0.35-5.44,0.93-8.07,1.73c-1.57,0.62-3.36,0.04-4.28-1.38c-2.18-2.54-4.62-4.84-7.27-6.88c-1.5-0.69-3.13-1.07-4.78-1.14
			c-0.04,1.66,0.14,3.32,0.53,4.93c1.09,2.46,2.33,4.86,3.7,7.18L263.68,224.76z M250.17,169.34c-10.64,2.19-20.85,6.07-30.26,11.5
			c-6.47,3.86-12.55,8.39-18.66,12.81c-0.9,0.65-1.01,2.39-1.49,3.61c1.37,0.33,2.73,0.76,4.11,0.96c0.53,0.08,1.12-0.37,1.7-0.55
			c10.35-3.1,20.56-6.74,31.05-9.16c18.67-4.31,37.32-5,55.45,3.05c2.35,0.89,4.88,1.19,7.38,0.89c4.64-0.25,8.19-4.21,7.94-8.85
			c-0.13-2.36-1.24-4.56-3.08-6.05c-2.71-2.16-5.71-3.92-8.93-5.22c-14.47-5.33-30.18-6.36-45.23-2.99L250.17,169.34z
			 M281.08,298.97l-1.44,0.27c-0.47,1.45-0.78,2.95-0.91,4.47c0.04,2.39,0.57,4.76,0.76,7.15c0.99,11.93-0.62,23.2-8.2,33.04
			c-0.92,1.53-1.66,3.15-2.21,4.85c1.98-0.19,3.92-0.7,5.73-1.53c12.89-9.25,17.34-26.39,10.58-40.74
			c-1.31-2.58-2.75-5.09-4.32-7.52L281.08,298.97z M318.38,323.17c-1.19,1.1-2.26,2.32-3.21,3.63c-4.44,8.38,2.46,20.94,11.88,21.28
			c2.15-0.02,4.18-1.02,5.51-2.71c1.29-2.25-1.01-3.86-3.01-4.84c-5.25-2.59-8.94-7.53-9.92-13.3c-0.25-1.1-0.66-2.16-1.26-4.08
			L318.38,323.17z"/>
		<path id="Path_30" class="st0" d="M263.67,224.74c-1.38-2.32-2.62-4.72-3.72-7.19c-0.39-1.61-0.57-3.27-0.53-4.93
			c1.65,0.07,3.27,0.45,4.78,1.14c2.65,2.04,5.09,4.34,7.27,6.88c0.92,1.42,2.71,2,4.28,1.38c2.64-0.81,5.34-1.39,8.07-1.73
			c4.14-0.48,5.43,0.76,5.59,4.96c0.12,4.95-2.74,9.49-7.26,11.52c-1.74,1-3.62,1.78-5.69,2.79c3.87,12.13,4.51,24.12-1.09,35.93
			c1.67,1.04,3.25,2.21,4.74,3.49c1.39,1.45,2.59,3.08,3.55,4.84c0.39,0.84,0.33,1.82-0.14,2.62c-0.43,0.47-1.74,0.38-2.59,0.2
			c-23.77-5.26-47.54-10.55-71.31-15.86c-1.17-0.27-2.34-0.53-3.5-0.85c-2.82-0.78-3.81-2.75-2.48-5.2
			c1.38-2.66,3.12-5.11,5.18-7.28c14.09-14.38,31.49-25.08,50.67-31.19C260.76,225.87,261.96,225.37,263.67,224.74z M250.14,267.17
			c3.52,1,7.84,1.96,11.94,3.48c3.07,1.13,4.49,0.08,5.36-2.62c2.43-7.83,2.44-16.22,0.02-24.06c-0.14-1.32-1.32-2.28-2.65-2.15
			c-0.3,0.03-0.58,0.12-0.85,0.25c-4,1.25-8.05,2.36-11.99,3.76c-0.98,0.45-1.69,1.33-1.9,2.39
			C249.97,254.39,250.1,260.56,250.14,267.17L250.14,267.17z"/>
		<path id="Path_31" class="st0" d="M250.17,169.33c15.05-3.38,30.75-2.34,45.22,2.98c3.21,1.3,6.22,3.06,8.93,5.22
			c3.6,2.94,4.13,8.23,1.19,11.83c-1.5,1.83-3.7,2.95-6.06,3.08c-2.5,0.3-5.03,0-7.38-0.89c-18.13-8.05-36.78-7.36-55.45-3.05
			c-10.5,2.42-20.7,6.06-31.05,9.16c-0.58,0.17-1.17,0.63-1.7,0.55c-1.39-0.2-2.74-0.62-4.11-0.96c0.47-1.23,0.59-2.96,1.49-3.61
			c6.1-4.42,12.19-8.95,18.66-12.81C229.31,175.39,239.53,171.51,250.17,169.33z"/>
		<path id="Path_32" class="st0" d="M281.07,298.96c1.56,2.42,3,4.93,4.31,7.5c6.76,14.35,2.31,31.49-10.57,40.74
			c-1.81,0.83-3.75,1.35-5.73,1.53c0.55-1.7,1.29-3.32,2.21-4.85c7.58-9.84,9.19-21.11,8.2-33.04c-0.2-2.39-0.72-4.76-0.76-7.15
			c0.14-1.52,0.44-3.02,0.91-4.47L281.07,298.96z"/>
		<path id="Path_33" class="st0" d="M318.38,323.16c0.6,1.91,1.01,2.97,1.25,4.06c0.98,5.77,4.67,10.71,9.92,13.3
			c2.01,0.98,4.3,2.6,3.01,4.84c-1.33,1.69-3.36,2.69-5.51,2.71c-9.42-0.34-16.32-12.9-11.88-21.28
			C316.12,325.47,317.19,324.26,318.38,323.16z"/>
		<path id="Path_34" class="st1" d="M250.14,267.17c-0.05-6.61-0.18-12.78-0.06-18.94c0.22-1.05,0.92-1.94,1.9-2.39
			c3.95-1.4,7.99-2.51,11.99-3.76c1.18-0.61,2.64-0.14,3.24,1.04c0.14,0.27,0.22,0.55,0.25,0.85c2.42,7.84,2.42,16.23-0.02,24.06
			c-0.87,2.71-2.3,3.76-5.36,2.62C257.98,269.13,253.66,268.17,250.14,267.17z"/>
	</g>
</g>
<path id="Path_35" class="st2" d="M623.67,188.91l4.86,22.48l22.48,4.86l-22.48,4.86l-4.86,22.48l-4.86-22.48l-22.48-4.86
	l22.48-4.86L623.67,188.91z"/>
<path id="Path_40" class="st2" d="M836,565.8l4.86,22.48l22.48,4.86l-22.48,4.86L836,620.47l-4.86-22.48l-22.48-4.86l22.48-4.86
	L836,565.8z"/>
<path id="Path_38" class="st0" d="M128.51,0l5.86,27.1l27.1,5.86l-27.1,5.86l-5.86,27.1l-5.86-27.1l-27.1-5.86l27.1-5.86L128.51,0z"
	/>
<path id="Path_39" class="st0" d="M786.49,321.61l6.43,29.78l29.78,6.43l-29.78,6.43l-6.43,29.78l-6.44-29.78l-29.78-6.43
	l29.78-6.43L786.49,321.61z"/>
<path id="Path_37" class="st3" d="M115.47,533.95l5.34,24.73l24.73,5.34l-24.73,5.34l-5.34,24.73l-5.34-24.73l-24.73-5.34
	l24.73-5.34L115.47,533.95z"/>
<g id="Group_3" transform="translate(-308 -309.503)">
	<g id="Group_2" transform="translate(-2424.521 1478.333)">
		<line id="Line_5" class="st4" x1="2764.37" y1="-891.25" x2="2764.37" y2="-827.55"/>
		<line id="Line_6" class="st4" x1="2796.22" y1="-859.4" x2="2732.52" y2="-859.4"/>
		<line id="Line_7" class="st4" x1="2748.47" y1="-875.3" x2="2780.28" y2="-843.49"/>
		<line id="Line_8" class="st4" x1="2780.28" y1="-875.3" x2="2748.47" y2="-843.49"/>
	</g>
</g>
<g id="Group_4" transform="translate(-20 -401.67)">
	<g id="Group_2-2" transform="translate(308 414.087)">
		<line id="Line_5-2" class="st5" x1="513.78" y1="20.54" x2="513.78" y2="95.3"/>
		<line id="Line_6-2" class="st5" x1="551.16" y1="57.92" x2="476.4" y2="57.92"/>
		<line id="Line_7-2" class="st5" x1="495.11" y1="39.25" x2="532.45" y2="76.58"/>
		<line id="Line_8-2" class="st5" x1="532.45" y1="39.25" x2="495.11" y2="76.58"/>
	</g>
</g>
</svg>
