<?xml version="1.0" encoding="utf-8"?>
<!-- Generator: Adobe Illustrator 24.2.3, SVG Export Plug-In . SVG Version: 6.00 Build 0)  -->
<svg version="1.1" id="Layer_1" xmlns="http://www.w3.org/2000/svg" xmlns:xlink="http://www.w3.org/1999/xlink" x="0px" y="0px"
	 viewBox="0 0 863.33 620.47" style="enable-background:new 0 0 863.33 620.47;" xml:space="preserve">
<style type="text/css">
	.st0{fill:#F2E9D9;}
	.st1{fill:#6BADA8;}
	.st2{fill:#F4C874;}
	.st3{fill:#F59478;}
	.st4{fill:none;stroke:#6BADA8;stroke-width:2.3804;stroke-miterlimit:10;}
	.st5{fill:none;stroke:#F59478;stroke-width:3.3309;stroke-miterlimit:10;}
</style>
<g>
	<path class="st0" d="M124.39,571.12c19.1,19.01,44.45,29.48,71.38,29.48l0.46,0l288.01-1.28c21.91-0.1,42.47-8.72,57.89-24.27
		c15.41-15.55,23.85-36.19,23.75-58.1c-0.09-20.62-7.91-40.23-22-55.22c-14-14.89-32.96-24-53.39-25.66l-8.17-0.66
		c-6.51-0.53-10.23-7.69-6.92-13.32l4.15-7.07c5.98-10.17,8.99-20.98,8.94-32.13c-0.15-34.48-28.32-62.52-62.8-62.52l-0.29,0
		c-16.18,0.07-31.59,6.39-43.4,17.79l-4.43,4.28c-4.38,4.23-11.57,3.16-14.53-2.16l-2.99-5.38c-17.93-32.23-51.64-52.24-87.96-52.24
		l-0.45,0c-27.02,0.12-52.39,10.76-71.42,29.97c-19.04,19.21-29.45,44.66-29.33,71.68c0,0.31,0.13,1.15,0.23,1.82
		c0.18,1.17,0.4,2.62,0.5,4.28l-5.05,7.13l-4.25,6.87c-40.69,14.42-67.91,52.78-67.72,95.45
		C94.69,526.79,105.28,552.1,124.39,571.12z"/>
	<path class="st1" d="M746.43,405.16c-3.07-4.83-8.7-7.18-14.71-6.16c-0.73,0.12-1.45,0.26-2.18,0.41
		c-2.79,0.59-5.29,1.33-7.64,2.28c-9.7,3.91-19.67,6.96-29.64,9.05c-6.79,1.43-13.74,2.45-20.66,3.03
		c-23.21,1.96-40.41,0.09-55.79-6.08l-2.78-1.11c-6.93-2.76-13.47-5.36-19.13-8.79c-23.05-13.96-34.72-31.15-36.74-54.09
		c-0.7-7.96-4.42-12.45-7.53-14.85c3.62-5.96,4.22-12.79,1.58-19.33c-1.06-2.63-2.42-4.87-3.5-6.67c-0.43-0.72-0.84-1.4-1.17-2
		c0.76-0.2,1.52-0.41,2.3-0.63c7.34-2.13,13.57-6.12,18.53-11.86c10.36-11.99,9.64-27.5-1.8-38.58c-4.27-4.14-8.7-8.64-13.53-13.76
		c-12.02-12.73-19.9-25.41-24.1-38.77c-6.71-21.37-5.86-42.11,2.55-61.64c19.5-45.34,51.17-72.04,96.82-81.63
		c2.68-0.56,5.44-1.07,8.21-1.51c4.1-0.65,8.44-0.92,13.04-1.2c3.33-0.21,6.77-0.42,10.27-0.79c0.51-0.05,1.02-0.13,1.52-0.24
		c3.71-0.78,6.32-2.77,7.72-3.84c0.14-0.1,0.27-0.21,0.41-0.31c3.3-2.08,5.46-5.57,5.83-9.46c0.37-3.87-1.06-7.69-3.88-10.36
		c-0.08-0.09-0.16-0.18-0.25-0.28c-1.22-1.37-3.76-4.21-7.99-5.51l-3.59-1.11c-6.44-2-13.09-4.06-20.06-5.54
		c-34.76-7.36-68.55-7.69-100.45-0.98c-26.37,5.54-51.9,15.99-75.89,31.06c-64.49,40.53-102.09,100.49-111.74,178.23
		c-2.24,18.06-1.93,36.74,0.92,55.79c0.33,2.18,1.5,4.13,3.19,5.54c7.25,6.02,13.89,12.85,19.77,20.41c0.9,1.16,2.51,1.45,3.77,0.68
		c14.15-8.61,30.36-13.26,47.15-13.33l0.41,0c50.46,0,91.69,41.06,91.92,91.52c0.03,7.12-0.81,14.26-2.5,21.25
		c-0.88,3.64,1.12,7.4,4.66,8.6c17.15,5.82,32.72,15.77,45.33,29.17c10.87,11.56,18.96,25.14,23.98,39.84
		c0.37,1.08,1.37,1.82,2.51,1.8c14.21-0.18,28.86-1.68,44.32-4.59c0.09-0.02,0.18-0.03,0.26-0.05c0.33-0.07,0.66-0.15,0.98-0.25
		c3.03-0.9,6.06-1.75,9.1-2.61c6.82-1.93,13.87-3.92,20.83-6.33c27.21-9.42,51.7-23.52,72.79-41.93c2.23-1.95,4.21-4.14,5.87-6.52
		C749.24,416.12,749.51,410,746.43,405.16z"/>
	<g>
		<path class="st1" d="M272.07,282.65L272.07,282.65c36.32,0,70.03,20.02,87.96,52.24l4.57,8.22c2.16,3.88,7.42,4.67,10.61,1.58
			l6.77-6.53c11.81-11.4,27.23-17.72,43.4-17.79l0.29,0c34.47,0,62.64,28.05,62.8,62.52c0.05,11.15-2.96,21.96-8.94,32.13
			l-5.9,10.04c-2.5,4.26,0.31,9.67,5.23,10.06l11.61,0.94c20.43,1.66,39.39,10.77,53.39,25.66c14.1,14.99,21.91,34.6,22,55.22
			c0.1,21.91-8.34,42.55-23.75,58.1c-15.41,15.55-35.97,24.17-57.89,24.27l-288.01,1.28l-0.46,0c-26.92,0-52.27-10.47-71.38-29.48
			c-19.11-19.02-29.7-44.33-29.82-71.27c-0.19-42.67,27.02-81.03,67.72-95.45l3.29-1.17c3.91-1.39,6.44-5.19,6.21-9.34l-0.2-3.49
			c-0.1-1.66-0.32-3.12-0.5-4.28c-0.1-0.67-0.23-1.51-0.23-1.82c-0.12-27.02,10.3-52.48,29.33-71.68
			c19.04-19.21,44.4-29.85,71.42-29.97L272.07,282.65 M272.07,268.65c-0.17,0-0.34,0-0.52,0c-63.6,0.28-114.98,52.11-114.69,115.72
			c0,0.4,0.02,0.79,0.05,1.18c0.26,3.33-1.57,6.44-4.66,7.71c-42.12,17.3-71.89,58.4-71.68,106.66
			c0.28,63.43,51.83,114.69,115.19,114.69c0.17,0,0.35,0,0.52,0l286.6-1.27c53-0.24,96.87-42.79,96.99-95.79
			c0.1-47.3-34.06-86.09-78.82-94.18c-4.46-0.81-6.91-5.6-5.08-9.75c4.15-9.42,6.55-19.79,6.5-30.77
			c-0.19-42.25-34.59-76.46-76.8-76.46c-0.12,0-0.23,0-0.35,0c-17.88,0.08-34.29,6.36-47.29,16.66c-3.1,2.45-7.65,1.68-9.8-1.64
			C347.78,289.77,312.5,268.65,272.07,268.65L272.07,268.65z"/>
	</g>
	<g>
		<path class="st0" d="M373.52,302.85c1.38,1.73,3.82,2.17,5.73,1.05c13.88-8.18,29.68-12.58,46.02-12.65l0.41,0
			c33,0,62.05,17.56,78.26,43.83c6.53,0.62,13.02-0.69,19.38-2.64c5.26-1.62,10.1-3.82,13.92-7.95c2.79-3.01,3.85-6.46,2.32-10.24
			c-1.11-2.75-2.93-5.2-4.32-7.85c-1.49-2.84-3.27-5.62-4.13-8.66c-0.88-3.12,1.13-6.32,4.27-7.12c3.32-0.85,6.68-1.54,9.97-2.49
			c4.93-1.43,9.13-4.09,12.5-7.99c6.1-7.06,5.63-14.84-1.03-21.29c-4.75-4.6-9.38-9.34-13.93-14.16
			c-11.98-12.69-21.7-26.91-26.96-43.65c-7.45-23.73-6.8-47.64,2.99-70.4c21.78-50.63,59.53-81.85,114.62-90.6
			c7.89-1.25,15.98-1.23,23.95-2.08c0.42-0.04,0.83-0.19,1.23-0.4c1.89-0.99,2.11-3.8,0.23-4.81c-0.15-0.08-0.3-0.15-0.46-0.2
			c-7.47-2.29-14.93-4.75-22.57-6.37c-59.4-12.57-115.57-3.91-167.03,28.42C406.65,93.72,372,150.98,362.97,223.72
			c-3.03,24.39-0.98,48.64,4.85,72.43C369.78,298.31,371.69,300.54,373.52,302.85z M508.58,278.22c0.51-0.96,1.46-1.68,2.68-3.03
			c0.5,1.6,0.84,2.48,1.05,3.39c1.11,4.94,3.6,8.81,8.28,11.1c1.67,0.82,3.59,2.17,2.51,4.04c-0.72,1.26-3.04,2.32-4.6,2.26
			C510.63,295.7,504.87,285.22,508.58,278.22z M474.87,295.26c-1.27,0.89-3.18,0.87-4.79,1.28c0.6-1.36,0.96-2.91,1.84-4.05
			c6.33-8.22,7.67-17.63,6.85-27.59c-0.17-1.99-0.61-3.98-0.64-5.97c-0.02-1.24,0.49-2.49,0.76-3.73c0.6-0.1,0.61-0.1,1.21-0.2
			c1.21,2.08,2.61,4.07,3.59,6.24C489.25,273.55,485.58,287.78,474.87,295.26z M481.03,203.04c-1.46,0.84-3.02,1.49-4.75,2.33
			c3.23,10.13,3.76,20.14-0.91,30.01c1.42,1.02,2.85,1.81,3.96,2.92c1.17,1.17,2.15,2.59,2.97,4.04c0.32,0.56,0.28,1.75-0.12,2.19
			c-0.36,0.39-1.46,0.32-2.16,0.17c-19.85-4.39-39.7-8.82-59.55-13.24c-0.98-0.22-1.96-0.44-2.92-0.71
			c-2.35-0.65-3.18-2.3-2.07-4.35c1.18-2.18,2.59-4.33,4.33-6.08c11.99-12.09,26.06-20.86,42.32-26.05
			c1.03-0.33,2.03-0.74,3.46-1.26c-1.2-2.27-2.37-4.06-3.1-6.01c-0.47-1.25-0.31-2.74-0.44-4.12c1.35,0.29,3,0.2,4,0.95
			c2.27,1.71,4.34,3.75,6.21,5.9c0.85,0.98,2.19,1.36,3.44,1c2.2-0.65,4.47-1.19,6.74-1.45c3.45-0.4,4.54,0.63,4.67,4.14
			C487.26,197.98,484.72,200.91,481.03,203.04z M413.44,167.02c5.1-3.69,10.18-7.47,15.58-10.7c7.7-4.6,16.12-7.55,25.28-9.6
			c12.54-2.5,25.33-2.3,37.76,2.49c2.66,1.02,5.19,2.61,7.45,4.36c2.4,1.86,3.11,4.68,2.23,7.62c-0.91,3.03-3.33,4.57-6.29,4.82
			c-2.03,0.17-4.34,0.07-6.16-0.74c-15.14-6.72-30.71-6.15-46.3-2.55c-8.77,2.02-17.3,5.06-25.93,7.65
			c-0.48,0.14-0.97,0.52-1.41,0.46c-1.16-0.17-2.29-0.52-3.44-0.8C412.6,169.01,412.69,167.56,413.44,167.02z"/>
		<path class="st0" d="M728.56,412.69c-0.65,0.21-1.3,0.44-1.93,0.69c-17.35,6.99-35.3,11.37-53.94,12.95
			c-20.98,1.78-41.71,1.02-61.55-6.94c-8.07-3.24-16.35-6.34-23.74-10.82c-23.86-14.45-40-34.38-42.71-63.21
			c-0.5-5.31-5.13-8.62-10.3-7.34c-8.07,1.98-16.16,4-24.35,5.36c-0.48,0.08-0.96,0.14-1.44,0.2c5.71,11.88,8.94,25.17,9,39.18
			c0.03,7.7-0.96,15.42-2.92,22.95c-0.71,2.72,0.79,5.5,3.46,6.36c17.79,5.73,33.95,15.88,46.96,29.71
			c8.15,8.67,14.74,18.48,19.65,29.04c16.35,0.3,32.61-1.33,48.83-4.38c9.8-2.9,19.74-5.43,29.39-8.77
			c25.37-8.78,48.36-21.83,68.64-39.52c0.02-0.02,0.05-0.04,0.07-0.06C737.56,412.91,736.04,410.3,728.56,412.69z"/>
	</g>
	<path class="st1" d="M373.81,303.22c1.19,1.51,3.3,1.96,4.95,0.97c14-8.36,29.97-12.87,46.5-12.94l0.41,0
		c50.46,0,91.69,41.06,91.92,91.52c0.04,7.94-1.02,15.88-3.1,23.63c-0.63,2.33,0.67,4.74,2.97,5.47
		c18.06,5.69,34.46,15.92,47.63,29.93c10.87,11.56,18.97,25.15,23.98,39.85c0.36,1.07,1.36,1.79,2.48,1.78
		c3.53-0.04,7.08-0.14,10.67-0.35c-5.34-18.37-14.95-35.34-28.32-49.56c-11.96-12.72-26.41-22.7-42.39-29.37
		c-2.15-0.9-3.39-3.17-3.03-5.47c0.83-5.29,1.23-10.62,1.21-15.95c-0.25-57.11-46.91-103.56-104.06-103.56l-0.43,0
		c-16.2,0.07-32.03,3.91-46.37,11.19c-8.54-9.79-18.32-18.29-29-25.34c0.4,4.45,0.95,8.92,1.63,13.41c0.29,1.89,1.3,3.59,2.78,4.81
		C361.41,289.12,367.98,295.81,373.81,303.22z"/>
	<path class="st0" d="M453.65,228.43c-0.04-5.52-0.15-10.67-0.05-15.81c0.01-0.7,0.89-1.76,1.59-2c3.3-1.17,6.68-2.09,10.02-3.14
		c1.55-0.48,2.47,0.01,2.92,1.58c1.9,6.7,2.14,13.4-0.01,20.09c-0.73,2.26-1.92,3.14-4.48,2.19
		C460.2,230.07,456.59,229.26,453.65,228.43z"/>
	<g>
		<path id="Path_35_5_" class="st2" d="M654.18,163.92l4.06,18.81l18.81,4.06l-18.81,4.06l-4.06,18.81l-4.06-18.81l-18.81-4.06
			l18.81-4.06L654.18,163.92z"/>
		<path id="Path_35_3_" class="st2" d="M78.38,63.23l4.06,18.81l18.81,4.06l-18.81,4.06l-4.06,18.81l-4.06-18.81L55.51,86.1
			l18.81-4.06L78.38,63.23z"/>
		<path id="Path_40_2_" class="st2" d="M729.76,529.05l4.06,18.81l18.81,4.06l-18.81,4.06l-4.06,18.81l-4.06-18.81l-18.81-4.06
			l18.81-4.06L729.76,529.05z"/>
		<path id="Path_38_3_" class="st1" d="M286.78,5.86l4.9,22.67l22.67,4.9l-22.67,4.9l-4.9,22.67l-4.9-22.67l-22.67-4.9l22.67-4.9
			L286.78,5.86z"/>
		<path id="Path_39_2_" class="st1" d="M790.4,274.95l5.38,24.92l24.92,5.38l-24.92,5.38l-5.38,24.92l-5.39-24.92l-24.92-5.38
			l24.92-5.38L790.4,274.95z"/>
		<path id="Path_37_3_" class="st3" d="M214.98,161.63l4.47,20.69l20.69,4.47l-20.69,4.47l-4.47,20.69l-4.47-20.69l-20.69-4.47
			l20.69-4.47L214.98,161.63z"/>
		<g id="Group_3_3_" transform="translate(-308 -309.503)">
			<g id="Group_2_3_" transform="translate(-2424.521 1478.333)">
				<line id="Line_5_3_" class="st4" x1="2788.03" y1="-890.23" x2="2788.03" y2="-836.94"/>
				<line id="Line_6_3_" class="st4" x1="2814.68" y1="-863.58" x2="2761.38" y2="-863.58"/>
				<line id="Line_7_3_" class="st4" x1="2774.72" y1="-876.89" x2="2801.34" y2="-850.28"/>
				<line id="Line_8_3_" class="st4" x1="2801.34" y1="-876.89" x2="2774.72" y2="-850.28"/>
			</g>
		</g>
		<g id="Group_4_3_" transform="translate(-20 -401.67)">
			<g id="Group_2-2_3_" transform="translate(308 414.087)">
				<line id="Line_5-2_3_" class="st5" x1="515.2" y1="21.02" x2="515.2" y2="83.57"/>
				<line id="Line_6-2_3_" class="st5" x1="546.47" y1="52.29" x2="483.92" y2="52.29"/>
				<line id="Line_7-2_3_" class="st5" x1="499.58" y1="36.68" x2="530.82" y2="67.91"/>
				<line id="Line_8-2_3_" class="st5" x1="530.82" y1="36.68" x2="499.58" y2="67.91"/>
			</g>
		</g>
	</g>
</g>
</svg>
