<?xml version="1.0" encoding="utf-8"?>
<!-- Generator: Adobe Illustrator 24.2.3, SVG Export Plug-In . SVG Version: 6.00 Build 0)  -->
<svg version="1.1" id="Layer_1" xmlns="http://www.w3.org/2000/svg" xmlns:xlink="http://www.w3.org/1999/xlink" x="0px" y="0px"
	 viewBox="0 0 320.83 222.58" style="enable-background:new 0 0 320.83 222.58;" xml:space="preserve">
<style type="text/css">
	.st0{enable-background:new    ;}
	.st1{fill:#6BAEA9;}
	.st2{fill:#F3E9DA;}
	.st3{fill:#F69578;}
	.st4{fill:#F4C974;}
	.st5{fill:none;stroke:#F4C974;stroke-width:1.5;stroke-miterlimit:10;}
	.st6{fill:none;stroke:#F69578;stroke-width:1.5;stroke-miterlimit:10;}
</style>
<g class="st0">
	<path class="st1" d="M136.38,151.32V139.8h3.51c3.81,0,6.29,2.35,6.29,5.76c0,3.43-2.45,5.76-6.24,5.76H136.38z M138.39,141.49
		v8.13h1.52c2.58,0,4.23-1.68,4.23-4.07c0-2.37-1.65-4.07-4.27-4.07H138.39z"/>
	<path class="st1" d="M153.13,139.8c2.61,0,4.26,1.31,4.26,3.67c0,1.7-1.02,2.82-2.27,3.25l2.51,4.61h-2.16l-2.21-4.27h-2.03v4.27
		h-1.98V139.8H153.13z M151.23,141.49v3.92h2.02c1.3,0,2.13-0.69,2.13-1.95c0-1.28-0.86-1.97-2.22-1.97H151.23z"/>
	<path class="st1" d="M160.68,151.32V139.8h2.02v11.52H160.68z"/>
	<path class="st1" d="M170.62,151.5h-0.06l-5.51-11.7h2.18l1.55,3.46c0.69,1.57,1.26,2.83,1.79,4.19c0.5-1.22,1.17-2.72,1.83-4.19
		l1.54-3.46h2.18L170.62,151.5z"/>
	<path class="st1" d="M178.46,151.32V139.8h7.25v1.7h-5.23v3.17h4.43v1.65h-4.43v3.31h5.47v1.7H178.46z"/>
	<path class="st1" d="M188.31,146.03h4.98v1.55h-4.98V146.03z"/>
	<path class="st1" d="M196.46,151.32V139.8h2.02v11.52H196.46z"/>
	<path class="st1" d="M211.63,151.5l-6.74-6.9c-0.18-0.16-0.37-0.35-0.56-0.51v7.24h-1.99v-11.7h0.06l6.72,6.88l0.56,0.54v-7.25
		h1.98v11.7H211.63z"/>
	<path class="st1" d="M220.46,139.8l1.7,4.35c0.42,1.07,0.78,2.11,1.04,2.9c0.24-0.62,0.62-1.57,1.02-2.51l0.71-1.68l1.25-2.95h0.06
		c1.06,2.45,2.32,5.33,2.98,7.14c0.54-1.54,1.89-5.01,2.74-7.25h2.22l-4.91,11.7h-0.06l-2.37-5.68c-0.21-0.51-0.45-1.06-0.62-1.55
		l-0.61,1.55l-2.38,5.68h-0.06l-4.9-11.7H220.46z"/>
	<path class="st1" d="M236.76,151.32V139.8h7.25v1.7h-5.23v3.17h4.43v1.65h-4.43v3.31h5.47v1.7H236.76z"/>
	<path class="st1" d="M251.35,139.62h0.06l5.46,11.7h-2.11l-1.02-2.29h-4.71l-1.02,2.29h-2.11L251.35,139.62z M253.08,147.53
		c-0.66-1.47-1.2-2.77-1.68-4.08c-0.5,1.2-1.09,2.67-1.71,4.08H253.08z"/>
	<path class="st1" d="M262.22,141.49v9.83h-2.02v-9.83h-3.36v-1.7h8.74v1.7H262.22z"/>
	<path class="st1" d="M275.47,151.32v-4.99h-5.22v4.99h-2.02V139.8h2.02v4.85h5.22v-4.85h2.02v11.52H275.47z"/>
	<path class="st1" d="M281.35,151.32V139.8h7.25v1.7h-5.23v3.17h4.43v1.65h-4.43v3.31h5.47v1.7H281.35z"/>
	<path class="st1" d="M295.8,139.8c2.61,0,4.26,1.31,4.26,3.67c0,1.7-1.02,2.82-2.27,3.25l2.51,4.61h-2.16l-2.21-4.27h-2.03v4.27
		h-1.98V139.8H295.8z M293.9,141.49v3.92h2.02c1.3,0,2.13-0.69,2.13-1.95c0-1.28-0.86-1.97-2.22-1.97H293.9z"/>
</g>
<g class="st0">
	<path class="st2" d="M104.66,57.94c0,8.47-2.99,18.4-7.01,28.62c-0.73,7.15-1.17,14.82-1.17,22.34c0,20.73,3.28,39.42,12.63,39.42
		c3.72,0,6.28-2.7,7.88-6.79l6.21,2.19c-2.7,6.72-7.3,10.29-13.58,10.29c-13.87,0-19.05-15.4-19.05-38.03
		c0-4.45,0.22-9.27,0.58-14.31c-2.92,6.5-5.84,12.92-8.32,18.98c0,0.95,0,1.83,0,2.77c0,4.75-0.29,9.56-1.02,14.75l-7.15-0.58
		c0-4.16,1.02-8.76,2.63-13.58c-0.36-8.1-1.24-15.77-2.04-23.21c-6.28,24.31-18.83,38.1-34.53,38.1
		c-14.96,0-21.68-10.22-21.68-20.88c0-11.68,8.03-23.94,22.12-23.94c9.12,0,14.02,6.79,14.02,14.89c0,3.87-1.17,8.03-3.5,11.9
		l-6.13-3.36c2.12-3.5,3.14-7.15,3.14-10.22c0-5.18-2.77-8.98-8.03-8.98c-9.05,0-15.04,10.29-15.04,19.86
		c0,8.47,4.67,16.35,15.84,16.35c13.94,0,27.16-17.3,32.7-43.07c-0.8-7.3-1.39-14.45-1.39-21.68c0-1.68,0.07-3.36,0.15-5.11h6.64
		c-0.07,6.57-0.51,12.77-1.17,18.54c1.61,10.66,3.07,19.64,3.87,28.4c3.14-6.86,6.79-13.87,10-20.66c1.31-10.51,3.21-21.68,5.62-33
		H104.66z"/>
	<path class="st2" d="M129.7,105.9c-1.68,4.38-4.96,7.45-8.47,8.69c-2.48,5.33-6.2,8.47-10.88,8.47c-5.04,0-7.23-5.26-7.23-11.9
		c0-4.09,0.8-8.69,2.26-12.99l2.63,0.66c0.8-5.62,3.87-10.51,9.05-10.51c4.89,0,7.45,5.62,7.45,12.19c0,3.58-0.88,7.3-1.82,10.51
		c1.9-0.88,3.65-2.7,4.96-6.13C128.09,104.88,129.7,105.46,129.7,105.9z M114.59,114.66c-3.07-1.17-5.04-4.09-6.06-7.59
		c-0.15,1.09-0.22,2.19-0.22,3.14c0,4.31,1.17,7.3,2.99,7.3c0.22,0,0.36,0,0.58-0.07C112.83,117.14,113.71,116.12,114.59,114.66z
		 M111.67,102.9c0,3.94,1.17,7.74,4.45,8.69c1.61-3.87,2.7-8.98,2.7-12.85c0-3.29-0.8-5.77-2.85-5.77c-0.15,0-0.36,0.07-0.51,0.07
		C113.35,93.49,111.67,98.23,111.67,102.9z"/>
	<path class="st2" d="M153.64,105.9c-1.68,4.38-4.96,7.45-8.47,8.69c-2.48,5.33-6.21,8.47-10.88,8.47c-5.04,0-7.23-5.26-7.23-11.9
		c0-4.09,0.8-8.69,2.26-12.99l2.63,0.66c0.8-5.62,3.87-10.51,9.05-10.51c4.89,0,7.45,5.62,7.45,12.19c0,3.58-0.88,7.3-1.83,10.51
		c1.9-0.88,3.65-2.7,4.96-6.13C152.03,104.88,153.64,105.46,153.64,105.9z M138.53,114.66c-3.07-1.17-5.04-4.09-6.06-7.59
		c-0.15,1.09-0.22,2.19-0.22,3.14c0,4.31,1.17,7.3,2.99,7.3c0.22,0,0.37,0,0.58-0.07C136.78,117.14,137.65,116.12,138.53,114.66z
		 M135.61,102.9c0,3.94,1.17,7.74,4.45,8.69c1.61-3.87,2.7-8.98,2.7-12.85c0-3.29-0.8-5.77-2.85-5.77c-0.15,0-0.37,0.07-0.51,0.07
		C137.29,93.49,135.61,98.23,135.61,102.9z"/>
	<path class="st2" d="M147.95,122.32c0,0,0.66-6.64,2.7-12.12c1.46-8.25,2.7-15.62,3.58-21.17h6.28l-0.8,4.89
		c2.34-3.5,5.26-5.69,8.32-5.69c2.56,0,4.23,1.68,4.23,5.18c0,6.79-4.75,15.48-4.75,21.46c0,2.12,0.8,2.48,1.46,2.48
		c1.9,0,4.31-4.09,7.52-12.48c0.44,0,2.04,0.58,2.04,1.02c-3.21,8.32-6.5,16.79-12.48,16.79c-2.55,0-4.96-2.04-4.96-6.5
		c0-7.88,4.75-15.99,4.75-21.24c0-0.8-0.37-1.46-1.17-1.46c-1.83,0-5.04,3.43-7.45,13.72l-2.92,15.11H147.95z"/>
	<path class="st2" d="M192.99,104.88c0.36,0,1.75,0.58,1.75,0.95c0,0.07,0,0.07,0,0.07c-4.31,11.68-7.67,17.16-12.41,17.16
		c-4.38,0-6.13-4.31-6.13-11.9c0-5.33,0.88-12.34,2.34-20.66c3.29-18.32,7.88-26.57,12.12-26.57c3.8,0,4.89,3.07,4.89,6.79
		c0,4.31-1.46,9.49-2.19,11.75c-2.99,9.56-7.88,16.72-10.8,20.29c-0.36,3.14-0.58,5.99-0.58,8.32c0,4.89,1.1,6.42,2.77,6.42
		C187.07,117.5,189.85,112.98,192.99,104.88z M191.6,68.82c-1.97,0-6.28,15.77-8.39,29.35c3.65-6.64,9.05-18.83,9.12-27.74
		C192.33,69.4,191.96,68.82,191.6,68.82z"/>
	<path class="st2" d="M202.62,89.04c-2.55,11.39-4.67,19.86-4.67,25.84c0,2.12,0.8,2.48,1.46,2.48c1.9,0,4.31-4.09,7.52-12.48
		c0.37,0,2.04,0.51,2.04,0.95v0.07c-3.21,8.32-5.77,16.79-11.75,16.79c-3.94,0-5.26-3.65-5.26-8.69c0-8.1,3.21-19.71,4.45-24.96
		H202.62z M197.29,81.08c0-2.63,1.9-5.77,5.11-5.77c2.41,0,3.43,1.75,3.43,3.8c0,2.63-1.9,5.69-5.11,5.69
		C198.39,84.8,197.29,83.05,197.29,81.08z"/>
	<path class="st2" d="M233.43,105.82c0,0.07,0,0.07,0,0.07c-2.77,7.15-6.79,12.34-10.73,16.42l-1.61,9.42
		c-1.24,7.37-4.02,12.77-8.69,12.77c-3.28,0-5.62-1.9-5.62-5.77c0-5.04,4.67-9.2,10.07-14.38c0.44-2.19,0.73-4.53,1.17-6.79
		c-1.83,3.29-4.23,5.48-7.23,5.48c-3.58,0-5.04-3.94-5.04-9.27c0-10.29,5.62-25.48,12.56-25.48c2.26,0,3.5,1.31,4.01,3.87l0.66-3.14
		h5.99c-0.88,3.21-3.29,16.79-5.4,28.4c3.07-3.5,5.91-7.59,7.81-12.56C232.04,104.88,233.43,105.39,233.43,105.82z M212.33,140.65
		c1.24,0,1.82-1.46,2.26-3.72l1.46-7.81c-3.07,3.21-5.18,6.06-5.18,9.56C210.87,140.06,211.6,140.65,212.33,140.65z M211.89,113.05
		c0,2.26,0.44,3.8,1.53,3.8c3.36,0,7.52-11.9,7.52-18.69c0-2.7-0.66-4.6-2.26-4.6C215.61,93.56,211.89,106.41,211.89,113.05z"/>
	<path class="st2" d="M228.53,122.32c-0.07-0.66-0.07-1.31-0.07-1.97c0-5.77,2.26-11.75,2.26-11.75c2.55-15.48,5.77-33.21,8.76-40
		c1.39-3.14,3.94-4.53,6.13-4.53c3.65,0,5.04,1.82,5.04,4.6c0,5.91-6.28,15.91-10.8,21.46c-0.22,1.31-0.51,2.63-0.8,4.01
		c2.41-3.65,5.4-5.91,8.54-5.91c2.55,0,4.23,1.68,4.23,5.18c0,6.79-4.75,15.48-4.75,21.46c0,2.12,0.8,2.48,1.46,2.48
		c1.9,0,4.31-4.09,7.52-12.48c0.44,0,2.04,0.58,2.04,1.02c-3.21,8.32-6.5,16.79-12.48,16.79c-2.55,0-4.96-2.04-4.96-6.5
		c0-7.88,4.75-15.99,4.75-21.24c0-0.8-0.37-1.46-1.17-1.46c-3.14,0-7.08,7.08-9.78,28.83H228.53z M245.98,68.82
		c-1.17,0-2.12,3.07-4.75,15.18c2.04-3.94,5.4-10.44,5.4-14.16C246.64,69.18,246.35,68.82,245.98,68.82z"/>
	<path class="st2" d="M267.37,71.81c-0.37,5.99-1.09,11.53-2.34,17.37c1.17,0,2.19-0.07,2.85-0.15l-0.66,3.43
		c-0.29,0.07-1.68,0.07-2.99,0.07c-0.66,2.77-1.39,5.62-2.26,8.61c-0.73,5.04-1.09,8.83-1.09,11.53c0,3.07,0.51,4.67,1.46,4.67
		c1.97,0,4.82-6.86,7.01-12.48c0.44,0,2.04,0.66,2.04,1.02c-4.31,11.68-6.57,16.79-11.31,16.79c-3.21,0-4.53-3.94-4.53-10.15
		c0-5.33,0.8-12.56,2.48-20c-1.68,0-2.92,0-3.21-0.07l0.51-3.43c0.51,0,1.75,0.07,3.29,0.07c0.95-5.04,1.9-9.93,3.58-17.3H267.37z"
		/>
</g>
<path id="Path_41" class="st3" d="M148.51,0l2.01,9.32l9.32,2.01l-9.32,2.01l-2.01,9.32l-2.01-9.32l-9.32-2.01l9.32-2.01L148.51,0z"
	/>
<path id="Path_42" class="st4" d="M308.42,37.83l2.21,10.21l10.21,2.21l-10.21,2.21l-2.21,10.21l-2.21-10.21L296,50.24l10.21-2.21
	L308.42,37.83z"/>
<path id="Path_43" class="st1" d="M63.98,187l1.83,8.47l8.47,1.83l-8.47,1.83l-1.83,8.47l-1.83-8.47l-8.47-1.83l8.47-1.83L63.98,187
	z"/>
<g id="Group_5" transform="translate(-308 -382.677)">
	<g id="Group_2" transform="translate(-2424.521 1478.333)">
		<line id="Line_5" class="st5" x1="2744.52" y1="-1064.25" x2="2744.52" y2="-1040.25"/>
		<line id="Line_6" class="st5" x1="2756.52" y1="-1052.25" x2="2732.52" y2="-1052.25"/>
		<line id="Line_7" class="st5" x1="2738.53" y1="-1058.24" x2="2750.51" y2="-1046.25"/>
		<line id="Line_8" class="st5" x1="2750.51" y1="-1058.24" x2="2738.53" y2="-1046.25"/>
	</g>
</g>
<g id="Group_6" transform="translate(-58 -210.843)">
	<g id="Group_2-2" transform="translate(308 414.087)">
		<line id="Line_5-2" class="st6" x1="9.67" y1="0" x2="9.67" y2="19.34"/>
		<line id="Line_6-2" class="st6" x1="19.34" y1="9.67" x2="0" y2="9.67"/>
		<line id="Line_7-2" class="st6" x1="4.84" y1="4.84" x2="14.5" y2="14.5"/>
		<line id="Line_8-2" class="st6" x1="14.5" y1="4.84" x2="4.84" y2="14.5"/>
	</g>
</g>
</svg>
