<?xml version="1.0" encoding="utf-8"?>
<!-- Generator: Adobe Illustrator 24.2.3, SVG Export Plug-In . SVG Version: 6.00 Build 0)  -->
<svg version="1.1" id="Layer_1" xmlns="http://www.w3.org/2000/svg" xmlns:xlink="http://www.w3.org/1999/xlink" x="0px" y="0px"
	 viewBox="0 0 863.33 620.47" style="enable-background:new 0 0 863.33 620.47;" xml:space="preserve">
<style type="text/css">
	.st0{fill:#F2E9D9;}
	.st1{fill:#6BADA8;}
	.st2{fill:none;stroke:#6BADA8;stroke-width:18.2973;stroke-linecap:round;stroke-miterlimit:10;}
	.st3{fill:#F4C874;}
	.st4{fill:#F59478;}
	.st5{fill:none;stroke:#F4C874;stroke-width:2.1632;stroke-miterlimit:10;}
	.st6{fill:none;stroke:#F59478;stroke-width:2.8232;stroke-miterlimit:10;}
</style>
<g>
	<g>
		<g>
			<path class="st0" d="M197.02,368.2c23.08,22.97,53.71,35.62,86.24,35.62l0.55,0l347.99-1.55c26.48-0.12,51.32-10.53,69.94-29.32
				c18.62-18.79,28.82-43.72,28.7-70.2c-0.11-24.91-9.55-48.61-26.58-66.72c-16.92-17.99-39.83-29-64.51-31l-9.87-0.8
				c-7.87-0.64-12.36-9.29-8.36-16.09l5.02-8.54c7.22-12.29,10.86-25.35,10.8-38.83c-0.18-41.66-34.22-75.54-75.87-75.54l-0.35,0
				c-19.54,0.09-38.17,7.72-52.44,21.5l-5.35,5.17c-5.29,5.11-13.98,3.81-17.56-2.61l-3.62-6.5
				c-21.67-38.94-62.39-63.12-106.28-63.12l-0.54,0c-32.65,0.14-63.3,13-86.3,36.21c-23,23.2-35.59,53.96-35.44,86.61
				c0,0.38,0.16,1.39,0.28,2.2c0.22,1.41,0.48,3.16,0.6,5.17l-6.1,8.61l-5.14,8.3c-49.17,17.42-82.05,63.77-81.82,115.33
				C161.14,314.64,173.93,345.22,197.02,368.2z"/>
			<g>
				<path class="st1" d="M375.46,19.65L375.46,19.65c43.89,0,84.61,24.19,106.28,63.12l5.53,9.93c2.61,4.69,8.96,5.64,12.82,1.91
					l8.18-7.89c14.27-13.77,32.9-21.41,52.44-21.5l0.35,0c41.65,0,75.69,33.89,75.87,75.54c0.06,13.47-3.57,26.54-10.8,38.83
					L619,191.74c-3.02,5.14,0.37,11.68,6.32,12.16l14.03,1.14c24.68,2,47.6,13.01,64.51,31c17.03,18.11,26.47,41.81,26.58,66.72
					c0.12,26.48-10.07,51.41-28.7,70.2c-18.62,18.79-43.46,29.2-69.94,29.32l-347.99,1.55l-0.55,0c-32.53,0-63.16-12.65-86.24-35.62
					c-23.09-22.98-35.88-53.56-36.03-86.11c-0.23-51.56,32.65-97.91,81.82-115.33l3.98-1.41c4.73-1.68,7.79-6.27,7.5-11.28
					l-0.24-4.22c-0.11-2.01-0.38-3.77-0.6-5.17c-0.12-0.81-0.28-1.82-0.28-2.2c-0.15-32.65,12.44-63.41,35.44-86.61
					c23-23.21,53.65-36.06,86.3-36.21L375.46,19.65 M375.46,2.74c-0.21,0-0.42,0-0.62,0c-76.85,0.34-138.92,62.97-138.58,139.81
					c0,0.48,0.02,0.96,0.06,1.43c0.31,4.03-1.9,7.78-5.64,9.31c-50.89,20.91-86.86,70.56-86.6,128.87
					c0.34,76.64,62.63,138.58,139.18,138.58c0.21,0,0.42,0,0.63,0l346.29-1.54c64.04-0.28,117.05-51.7,117.18-115.74
					c0.12-57.15-41.15-104.01-95.24-113.8c-5.39-0.98-8.35-6.77-6.14-11.79c5.02-11.39,7.91-23.91,7.85-37.18
					c-0.23-51.04-41.8-92.39-92.79-92.39c-0.14,0-0.28,0-0.42,0c-21.6,0.1-41.43,7.69-57.13,20.13c-3.75,2.97-9.25,2.03-11.84-1.98
					C466.93,28.26,424.31,2.74,375.46,2.74L375.46,2.74z"/>
			</g>
		</g>
		<line class="st2" x1="445.7" y1="463.5" x2="445.7" y2="609.73"/>
		<line class="st2" x1="383.17" y1="463.5" x2="383.17" y2="542.96"/>
		<line class="st2" x1="258.1" y1="463.5" x2="258.1" y2="509.39"/>
		<line class="st2" x1="320.63" y1="463.5" x2="320.63" y2="584.61"/>
		<line class="st2" x1="570.76" y1="463.5" x2="570.76" y2="584.61"/>
		<line class="st2" x1="508.23" y1="463.5" x2="508.23" y2="542.96"/>
		<line class="st2" x1="633.29" y1="463.5" x2="633.29" y2="509.39"/>
	</g>
	<path id="Path_35_4_" class="st3" d="M738.01,532.1l3.48,16.1l16.1,3.48l-16.1,3.48l-3.48,16.1l-3.48-16.1l-16.1-3.48l16.1-3.48
		L738.01,532.1z"/>
	<path id="Path_35_2_" class="st3" d="M76.05,127.34l3.42,15.82l15.82,3.42L79.47,150l-3.42,15.82L72.63,150l-15.82-3.42l15.82-3.42
		L76.05,127.34z"/>
	<path id="Path_38_2_" class="st1" d="M117.58,41.97l4.44,20.53l20.53,4.44l-20.53,4.44l-4.44,20.53l-4.44-20.53l-20.53-4.44
		l20.53-4.44L117.58,41.97z"/>
	<path id="Path_37_2_" class="st4" d="M773.89,462.64l3.62,16.76l16.76,3.62l-16.76,3.62l-3.62,16.76l-3.62-16.76l-16.76-3.62
		l16.76-3.62L773.89,462.64z"/>
	<g id="Group_3_2_" transform="translate(-308 -309.503)">
		<g id="Group_2_2_" transform="translate(-2424.521 1478.333)">
			<line id="Line_5_2_" class="st5" x1="2841.43" y1="-713.11" x2="2841.43" y2="-664.68"/>
			<line id="Line_6_2_" class="st5" x1="2865.64" y1="-688.9" x2="2817.21" y2="-688.9"/>
			<line id="Line_7_2_" class="st5" x1="2829.33" y1="-700.99" x2="2853.52" y2="-676.8"/>
			<line id="Line_8_2_" class="st5" x1="2853.52" y1="-700.99" x2="2829.33" y2="-676.8"/>
		</g>
	</g>
	<g id="Group_4_2_" transform="translate(-20 -401.67)">
		<g id="Group_2-2_2_" transform="translate(308 414.087)">
			<line id="Line_5-2_2_" class="st6" x1="479.77" y1="69.95" x2="479.77" y2="122.96"/>
			<line id="Line_6-2_2_" class="st6" x1="506.27" y1="96.45" x2="453.26" y2="96.45"/>
			<line id="Line_7-2_2_" class="st6" x1="466.53" y1="83.22" x2="493" y2="109.69"/>
			<line id="Line_8-2_2_" class="st6" x1="493" y1="83.22" x2="466.53" y2="109.69"/>
		</g>
	</g>
</g>
</svg>
