<?xml version="1.0" encoding="utf-8"?>
<!-- Generator: Adobe Illustrator 24.2.3, SVG Export Plug-In . SVG Version: 6.00 Build 0)  -->
<svg version="1.1" id="Layer_1" xmlns="http://www.w3.org/2000/svg" xmlns:xlink="http://www.w3.org/1999/xlink" x="0px" y="0px"
	 viewBox="0 0 282.83 252.67" style="enable-background:new 0 0 282.83 252.67;" xml:space="preserve">
<style type="text/css">
	.st0{fill:#F3EADB;}
	.st1{fill:#6BAEA9;}
	.st2{fill:#F5C974;}
	.st3{fill:#F69579;}
	.st4{fill:none;stroke:#6BAEA9;stroke-miterlimit:10;}
	.st5{fill:none;stroke:#F69579;stroke-width:1.3993;stroke-miterlimit:10;}
	.st6{fill:none;stroke:#6BAEA9;stroke-width:7.5036;stroke-linecap:round;stroke-miterlimit:10;}
	.st7{fill:none;stroke:#F5C974;stroke-width:0.8871;stroke-miterlimit:10;}
	.st8{fill:none;stroke:#F69579;stroke-width:0.9882;stroke-miterlimit:10;}
</style>
<g>
	<g>
		<g>
			<path class="st0" d="M45.19,149.87c9.47,9.42,22.03,14.61,35.37,14.61l0.23,0l142.71-0.63c10.86-0.05,21.04-4.32,28.68-12.02
				c7.64-7.71,11.82-17.93,11.77-28.79c-0.05-10.22-3.92-19.93-10.9-27.36c-6.94-7.38-16.33-11.89-26.46-12.71l-4.05-0.33
				c-3.23-0.26-5.07-3.81-3.43-6.6l2.06-3.5c2.96-5.04,4.45-10.4,4.43-15.92c-0.08-17.08-14.03-30.98-31.12-30.98l-0.14,0
				c-8.02,0.04-15.65,3.17-21.51,8.82l-2.2,2.12c-2.17,2.09-5.73,1.56-7.2-1.07l-1.48-2.67c-8.89-15.97-25.59-25.89-43.58-25.89
				l-0.22,0C104.75,7,92.18,12.27,82.75,21.79c-9.43,9.52-14.59,22.13-14.53,35.52c0,0.15,0.06,0.57,0.11,0.9
				c0.09,0.58,0.2,1.3,0.25,2.12l-2.5,3.53l-2.11,3.4c-20.16,7.14-33.65,26.15-33.55,47.3C30.47,127.91,35.72,140.45,45.19,149.87z"
				/>
			<g>
				<path class="st1" d="M118.37,6.94L118.37,6.94c18,0,34.7,9.92,43.58,25.89l2.27,4.07c1.07,1.92,3.67,2.31,5.26,0.78l3.35-3.24
					c5.85-5.65,13.49-8.78,21.51-8.82l0.14,0c17.08,0,31.04,13.9,31.12,30.98c0.02,5.52-1.47,10.88-4.43,15.92l-2.93,4.98
					c-1.24,2.11,0.15,4.79,2.59,4.99l5.75,0.47c10.12,0.82,19.52,5.34,26.46,12.71c6.99,7.43,10.86,17.15,10.9,27.36
					c0.05,10.86-4.13,21.08-11.77,28.79c-7.64,7.71-17.82,11.98-28.68,12.02l-142.71,0.63l-0.23,0c-13.34,0-25.9-5.19-35.37-14.61
					c-9.47-9.42-14.72-21.97-14.77-35.31c-0.09-21.14,13.39-40.15,33.55-47.3l1.63-0.58c1.94-0.69,3.19-2.57,3.08-4.63l-0.1-1.73
					c-0.05-0.82-0.16-1.54-0.25-2.12c-0.05-0.33-0.11-0.75-0.11-0.9c-0.06-13.39,5.1-26,14.53-35.52c9.43-9.52,22-14.79,35.39-14.85
					L118.37,6.94 M118.37,0c-0.09,0-0.17,0-0.26,0C86.6,0.14,61.14,25.82,61.28,57.34c0,0.2,0.01,0.39,0.02,0.59
					c0.13,1.65-0.78,3.19-2.31,3.82c-20.87,8.57-35.62,28.94-35.52,52.85c0.14,31.43,25.68,56.83,57.08,56.83c0.09,0,0.17,0,0.26,0
					l142.01-0.63c26.26-0.12,48-21.2,48.06-47.47c0.05-23.44-16.88-42.66-39.06-46.67c-2.21-0.4-3.42-2.78-2.52-4.83
					c2.06-4.67,3.24-9.81,3.22-15.25c-0.09-20.93-17.14-37.89-38.05-37.89c-0.06,0-0.11,0-0.17,0c-8.86,0.04-16.99,3.15-23.43,8.26
					c-1.54,1.22-3.79,0.83-4.86-0.81C155.88,10.47,138.4,0,118.37,0L118.37,0z"/>
			</g>
		</g>
		<line class="st6" x1="147.17" y1="188.96" x2="147.17" y2="248.92"/>
		<line class="st6" x1="121.53" y1="188.96" x2="121.53" y2="221.54"/>
		<line class="st6" x1="70.24" y1="188.96" x2="70.24" y2="207.77"/>
		<line class="st6" x1="95.88" y1="188.96" x2="95.88" y2="238.62"/>
		<line class="st6" x1="198.46" y1="188.96" x2="198.46" y2="238.62"/>
		<line class="st6" x1="172.81" y1="188.96" x2="172.81" y2="221.54"/>
		<line class="st6" x1="224.1" y1="188.96" x2="224.1" y2="207.77"/>
	</g>
	<path id="Path_35_4_" class="st2" d="M258.84,217.09l1.43,6.6l6.6,1.43l-6.6,1.43l-1.43,6.6l-1.43-6.6l-6.6-1.43l6.6-1.43
		L258.84,217.09z"/>
	<path id="Path_35_1_" class="st2" d="M7.89,51.1l1.4,6.49l6.49,1.4l-6.49,1.4l-1.4,6.49l-1.4-6.49L0,58.99l6.49-1.4L7.89,51.1z"/>
	<path id="Path_38_2_" class="st1" d="M20.82,20.19l1.82,8.42l8.42,1.82l-8.42,1.82l-1.82,8.42L19,32.25l-8.42-1.82L19,28.61
		L20.82,20.19z"/>
	<path id="Path_37_2_" class="st3" d="M273.55,188.6l1.49,6.87l6.87,1.49l-6.87,1.49l-1.49,6.87l-1.48-6.87l-6.87-1.49l6.87-1.49
		L273.55,188.6z"/>
	<g id="Group_3_2_" transform="translate(-308 -309.503)">
		<g id="Group_2_2_" transform="translate(-2424.521 1478.333)">
			<line id="Line_5_2_" class="st7" x1="2745.68" y1="-987.17" x2="2745.68" y2="-967.31"/>
			<line id="Line_6_2_" class="st7" x1="2755.61" y1="-977.24" x2="2735.75" y2="-977.24"/>
			<line id="Line_7_2_" class="st7" x1="2740.72" y1="-982.2" x2="2750.64" y2="-972.28"/>
			<line id="Line_8_2_" class="st7" x1="2750.64" y1="-982.2" x2="2740.72" y2="-972.28"/>
		</g>
	</g>
	<g id="Group_4_2_" transform="translate(-20 -401.67)">
		<g id="Group_2-2_2_" transform="translate(308 414.087)">
			<line id="Line_5-2_2_" class="st8" x1="-14.45" y1="27.53" x2="-14.45" y2="46.08"/>
			<line id="Line_6-2_2_" class="st8" x1="-5.17" y1="36.8" x2="-23.72" y2="36.8"/>
			<line id="Line_7-2_2_" class="st8" x1="-19.08" y1="32.17" x2="-9.81" y2="41.44"/>
			<line id="Line_8-2_2_" class="st8" x1="-9.81" y1="32.17" x2="-19.08" y2="41.44"/>
		</g>
	</g>
</g>
</svg>
