<?xml version="1.0" encoding="utf-8"?>
<!-- Generator: Adobe Illustrator 24.2.3, SVG Export Plug-In . SVG Version: 6.00 Build 0)  -->
<svg version="1.1" id="Layer_1" xmlns="http://www.w3.org/2000/svg" xmlns:xlink="http://www.w3.org/1999/xlink" x="0px" y="0px"
	 viewBox="0 0 338.44 255.73" style="enable-background:new 0 0 338.44 255.73;" xml:space="preserve">
<style type="text/css">
	.st0{fill:#F3EADB;}
	.st1{fill:#6BAEA9;}
	.st2{fill:#F5C974;}
	.st3{fill:#F69579;}
	.st4{fill:none;stroke:#6BAEA9;stroke-miterlimit:10;}
	.st5{fill:none;stroke:#F69579;stroke-width:1.3993;stroke-miterlimit:10;}
	.st6{fill:none;stroke:#6BAEA9;stroke-width:7.5036;stroke-linecap:round;stroke-miterlimit:10;}
	.st7{fill:none;stroke:#F5C974;stroke-width:0.8871;stroke-miterlimit:10;}
	.st8{fill:none;stroke:#F69579;stroke-width:0.9882;stroke-miterlimit:10;}
</style>
<g>
	<path class="st0" d="M40.13,237.46c8.03,7.99,18.67,12.39,29.99,12.39l0.19,0l121-0.54c9.21-0.04,17.84-3.66,24.32-10.19
		c6.48-6.53,10.02-15.2,9.98-24.41c-0.04-8.66-3.32-16.9-9.24-23.2c-5.88-6.26-13.85-10.08-22.43-10.78l-3.43-0.28
		c-2.74-0.22-4.3-3.23-2.91-5.6l1.74-2.97c2.51-4.27,3.77-8.82,3.75-13.5c-0.06-14.48-11.9-26.27-26.38-26.27l-0.12,0
		c-6.8,0.03-13.27,2.68-18.23,7.47l-1.86,1.8c-1.84,1.78-4.86,1.33-6.1-0.91l-1.26-2.26c-7.53-13.54-21.69-21.95-36.95-21.95
		l-0.19,0c-11.35,0.05-22.01,4.52-30.01,12.59c-8,8.07-12.37,18.76-12.32,30.11c0,0.13,0.05,0.48,0.1,0.76
		c0.07,0.49,0.17,1.1,0.21,1.8l-2.12,2.99l-1.79,2.89c-17.1,6.06-28.53,22.17-28.45,40.1C27.66,218.84,32.1,229.47,40.13,237.46z"/>
	<path class="st1" d="M301.45,167.75c-1.29-2.03-3.66-3.02-6.18-2.59c-0.3,0.05-0.61,0.11-0.91,0.17c-1.17,0.25-2.22,0.56-3.21,0.96
		c-4.08,1.64-8.27,2.92-12.45,3.8c-2.85,0.6-5.77,1.03-8.68,1.27c-9.75,0.83-16.98,0.04-23.44-2.55l-1.17-0.47
		c-2.91-1.16-5.66-2.25-8.03-3.69c-9.68-5.87-14.59-13.09-15.43-22.72c-0.29-3.34-1.86-5.23-3.16-6.24
		c1.52-2.51,1.77-5.37,0.67-8.12c-0.45-1.11-1.02-2.05-1.47-2.8c-0.18-0.3-0.35-0.59-0.49-0.84c0.32-0.08,0.64-0.17,0.96-0.26
		c3.08-0.89,5.7-2.57,7.78-4.98c4.35-5.04,4.05-11.55-0.76-16.21c-1.8-1.74-3.65-3.63-5.69-5.78c-5.05-5.35-8.36-10.67-10.12-16.29
		c-2.82-8.98-2.46-17.69,1.07-25.9c8.19-19.05,21.5-30.26,40.67-34.29c1.12-0.24,2.28-0.45,3.45-0.63c1.72-0.27,3.55-0.39,5.48-0.51
		c1.4-0.09,2.84-0.18,4.32-0.33c0.21-0.02,0.43-0.06,0.64-0.1c1.56-0.33,2.65-1.16,3.24-1.61c0.06-0.04,0.11-0.09,0.17-0.13
		c1.39-0.87,2.29-2.34,2.45-3.97c0.16-1.63-0.45-3.23-1.63-4.35c-0.04-0.04-0.07-0.08-0.1-0.12c-0.51-0.57-1.58-1.77-3.36-2.32
		l-1.51-0.47c-2.7-0.84-5.5-1.71-8.43-2.33c-14.6-3.09-28.8-3.23-42.2-0.41c-11.08,2.33-21.8,6.72-31.88,13.05
		c-27.09,17.02-42.89,42.22-46.94,74.88c-0.94,7.59-0.81,15.44,0.39,23.44c0.14,0.92,0.63,1.73,1.34,2.33
		c3.05,2.53,5.84,5.4,8.31,8.57c0.38,0.49,1.06,0.61,1.58,0.29c5.95-3.62,12.76-5.57,19.81-5.6l0.17,0
		c21.2,0,38.52,17.25,38.62,38.45c0.01,2.99-0.34,5.99-1.05,8.93c-0.37,1.53,0.47,3.11,1.96,3.61c7.2,2.44,13.75,6.62,19.04,12.26
		c4.57,4.86,7.97,10.56,10.07,16.73c0.15,0.45,0.58,0.76,1.06,0.76c5.97-0.08,12.12-0.71,18.62-1.93c0.04-0.01,0.07-0.01,0.11-0.02
		c0.14-0.03,0.28-0.06,0.41-0.1c1.27-0.38,2.55-0.74,3.82-1.1c2.86-0.81,5.82-1.65,8.75-2.66c11.43-3.96,21.72-9.88,30.58-17.61
		c0.94-0.82,1.77-1.74,2.47-2.74C302.63,172.35,302.74,169.78,301.45,167.75z"/>
	<g>
		<path class="st1" d="M102.17,116.28L102.17,116.28c15.26,0,29.42,8.41,36.95,21.95l1.92,3.45c0.91,1.63,3.12,1.96,4.46,0.66
			l2.84-2.74c4.96-4.79,11.44-7.44,18.23-7.47l0.12,0c14.48,0,26.32,11.78,26.38,26.27c0.02,4.68-1.24,9.23-3.75,13.5l-2.48,4.22
			c-1.05,1.79,0.13,4.06,2.2,4.23l4.88,0.4c8.58,0.7,16.55,4.52,22.43,10.78c5.92,6.3,9.21,14.54,9.24,23.2
			c0.04,9.21-3.5,17.87-9.98,24.41c-6.48,6.53-15.11,10.15-24.32,10.19l-121,0.54l-0.19,0c-11.31,0-21.96-4.4-29.99-12.39
			c-8.03-7.99-12.48-18.62-12.53-29.94c-0.08-17.93,11.35-34.04,28.45-40.1l1.38-0.49c1.64-0.58,2.71-2.18,2.61-3.92l-0.08-1.47
			c-0.04-0.7-0.13-1.31-0.21-1.8c-0.04-0.28-0.1-0.63-0.1-0.76c-0.05-11.35,4.33-22.05,12.32-30.11c8-8.07,18.65-12.54,30.01-12.59
			L102.17,116.28 M102.17,110.4c-0.07,0-0.14,0-0.22,0c-26.72,0.12-48.3,21.89-48.18,48.61c0,0.17,0.01,0.33,0.02,0.5
			c0.11,1.4-0.66,2.7-1.96,3.24c-17.69,7.27-30.2,24.53-30.11,44.81c0.12,26.65,21.77,48.18,48.39,48.18c0.07,0,0.15,0,0.22,0
			l120.4-0.53c22.27-0.1,40.7-17.98,40.74-40.24c0.04-19.87-14.31-36.16-33.11-39.57c-1.87-0.34-2.9-2.35-2.13-4.1
			c1.74-3.96,2.75-8.31,2.73-12.93c-0.08-17.75-14.53-32.12-32.26-32.12c-0.05,0-0.1,0-0.15,0c-7.51,0.03-14.4,2.67-19.87,7
			c-1.3,1.03-3.22,0.71-4.12-0.69C133.98,119.27,119.16,110.4,102.17,110.4L102.17,110.4z"/>
	</g>
	<g>
		<path class="st0" d="M144.79,124.76c0.58,0.73,1.61,0.91,2.41,0.44c5.83-3.44,12.47-5.29,19.33-5.32l0.17,0
			c13.86,0,26.07,7.38,32.88,18.41c2.74,0.26,5.47-0.29,8.14-1.11c2.21-0.68,4.24-1.6,5.85-3.34c1.17-1.26,1.62-2.71,0.97-4.3
			c-0.47-1.15-1.23-2.18-1.82-3.3c-0.62-1.19-1.37-2.36-1.73-3.64c-0.37-1.31,0.48-2.65,1.79-2.99c1.39-0.36,2.81-0.65,4.19-1.05
			c2.07-0.6,3.84-1.72,5.25-3.36c2.56-2.97,2.37-6.23-0.43-8.95c-2-1.93-3.94-3.93-5.85-5.95c-5.03-5.33-9.12-11.3-11.33-18.34
			c-3.13-9.97-2.86-20.01,1.26-29.57c9.15-21.27,25.01-34.39,48.15-38.06c3.32-0.53,6.71-0.52,10.06-0.87
			c0.18-0.02,0.35-0.08,0.52-0.17c0.79-0.42,0.89-1.6,0.1-2.02c-0.06-0.03-0.13-0.06-0.19-0.08c-3.14-0.96-6.27-2-9.48-2.67
			c-24.95-5.28-48.55-1.64-70.17,11.94c-26.16,16.44-40.71,40.49-44.51,71.05c-1.27,10.25-0.41,20.43,2.04,30.43
			C143.22,122.86,144.02,123.8,144.79,124.76z M201.53,114.42c0.21-0.4,0.61-0.7,1.12-1.27c0.21,0.67,0.35,1.04,0.44,1.42
			c0.47,2.07,1.51,3.7,3.48,4.66c0.7,0.34,1.51,0.91,1.06,1.7c-0.3,0.53-1.28,0.97-1.93,0.95
			C202.39,121.76,199.97,117.36,201.53,114.42z M187.37,121.58c-0.53,0.37-1.33,0.37-2.01,0.54c0.25-0.57,0.4-1.22,0.77-1.7
			c2.66-3.45,3.22-7.41,2.88-11.59c-0.07-0.84-0.25-1.67-0.27-2.51c-0.01-0.52,0.21-1.05,0.32-1.57c0.25-0.04,0.26-0.04,0.51-0.08
			c0.51,0.87,1.1,1.71,1.51,2.62C193.41,112.45,191.87,118.43,187.37,121.58z M189.96,82.83c-0.61,0.35-1.27,0.63-2,0.98
			c1.36,4.26,1.58,8.46-0.38,12.61c0.59,0.43,1.2,0.76,1.66,1.23c0.49,0.49,0.9,1.09,1.25,1.7c0.13,0.24,0.12,0.74-0.05,0.92
			c-0.15,0.17-0.61,0.14-0.91,0.07c-8.34-1.84-16.68-3.7-25.02-5.56c-0.41-0.09-0.82-0.19-1.23-0.3c-0.99-0.27-1.34-0.96-0.87-1.83
			c0.49-0.91,1.09-1.82,1.82-2.55c5.04-5.08,10.95-8.76,17.78-10.94c0.43-0.14,0.85-0.31,1.45-0.53c-0.51-0.96-0.99-1.71-1.3-2.52
			c-0.2-0.53-0.13-1.15-0.18-1.73c0.57,0.12,1.26,0.08,1.68,0.4c0.95,0.72,1.83,1.58,2.61,2.48c0.36,0.41,0.92,0.57,1.44,0.42
			c0.93-0.27,1.88-0.5,2.83-0.61c1.45-0.17,1.91,0.27,1.96,1.74C192.57,80.71,191.51,81.94,189.96,82.83z M161.56,67.7
			c2.14-1.55,4.28-3.14,6.54-4.49c3.24-1.93,6.77-3.17,10.62-4.03c5.27-1.05,10.64-0.97,15.86,1.04c1.12,0.43,2.18,1.1,3.13,1.83
			c1.01,0.78,1.31,1.96,0.94,3.2c-0.38,1.27-1.4,1.92-2.64,2.03c-0.85,0.07-1.82,0.03-2.59-0.31c-6.36-2.82-12.9-2.58-19.45-1.07
			c-3.68,0.85-7.27,2.13-10.89,3.21c-0.2,0.06-0.41,0.22-0.59,0.19c-0.49-0.07-0.96-0.22-1.44-0.34
			C161.21,68.54,161.25,67.93,161.56,67.7z"/>
		<path class="st0" d="M293.94,170.91c-0.27,0.09-0.55,0.18-0.81,0.29c-7.29,2.94-14.83,4.78-22.66,5.44
			c-8.81,0.75-17.52,0.43-25.86-2.92c-3.39-1.36-6.87-2.66-9.97-4.54c-10.02-6.07-16.8-14.44-17.94-26.55
			c-0.21-2.23-2.15-3.62-4.33-3.09c-3.39,0.83-6.79,1.68-10.23,2.25c-0.2,0.03-0.4,0.06-0.6,0.08c2.4,4.99,3.76,10.57,3.78,16.46
			c0.01,3.24-0.4,6.48-1.23,9.64c-0.3,1.14,0.33,2.31,1.45,2.67c7.47,2.41,14.26,6.67,19.73,12.48c3.42,3.64,6.19,7.76,8.25,12.2
			c6.87,0.13,13.7-0.56,20.51-1.84c4.12-1.22,8.29-2.28,12.35-3.69c10.66-3.69,20.32-9.17,28.83-16.6c0.01-0.01,0.02-0.02,0.03-0.03
			C297.73,171,297.09,169.9,293.94,170.91z"/>
	</g>
	<path class="st1" d="M144.92,124.92c0.5,0.63,1.39,0.82,2.08,0.41c5.88-3.51,12.59-5.4,19.54-5.44l0.17,0
		c21.2,0,38.52,17.25,38.62,38.45c0.02,3.33-0.43,6.67-1.3,9.93c-0.26,0.98,0.28,1.99,1.25,2.3c7.59,2.39,14.48,6.69,20.01,12.57
		c4.57,4.86,7.97,10.56,10.07,16.74c0.15,0.45,0.57,0.75,1.04,0.75c1.48-0.02,2.97-0.06,4.48-0.15c-2.24-7.72-6.28-14.85-11.9-20.82
		c-5.02-5.34-11.09-9.54-17.81-12.34c-0.9-0.38-1.42-1.33-1.27-2.3c0.35-2.22,0.52-4.46,0.51-6.7
		c-0.11-23.99-19.71-43.51-43.71-43.51l-0.18,0c-6.8,0.03-13.46,1.64-19.48,4.7c-3.59-4.11-7.7-7.68-12.18-10.65
		c0.17,1.87,0.4,3.75,0.68,5.63c0.12,0.8,0.55,1.51,1.17,2.02C139.7,119,142.46,121.81,144.92,124.92z"/>
	<path class="st0" d="M178.45,93.5c-0.02-2.32-0.06-4.48-0.02-6.64c0.01-0.29,0.37-0.74,0.67-0.84c1.38-0.49,2.8-0.88,4.21-1.32
		c0.65-0.2,1.04,0,1.23,0.66c0.8,2.82,0.9,5.63,0,8.44c-0.31,0.95-0.81,1.32-1.88,0.92C181.2,94.19,179.69,93.85,178.45,93.5z"/>
	<g>
		<path id="Path_35_3_" class="st2" d="M262.7,66.4l1.71,7.9l7.9,1.71l-7.9,1.71l-1.71,7.9l-1.71-7.9l-7.9-1.71l7.9-1.71L262.7,66.4
			z"/>
		<path id="Path_35_2_" class="st2" d="M20.8,24.1l1.71,7.9l7.9,1.71l-7.9,1.71l-1.71,7.9l-1.71-7.9l-7.9-1.71L19.1,32L20.8,24.1z"
			/>
		<path id="Path_40_1_" class="st2" d="M294.45,219.79l1.71,7.9l7.9,1.71l-7.9,1.71l-1.71,7.9l-1.71-7.9l-7.9-1.71l7.9-1.71
			L294.45,219.79z"/>
		<path id="Path_38_1_" class="st1" d="M108.35,0l2.06,9.53l9.53,2.06l-9.53,2.06l-2.06,9.53l-2.06-9.53l-9.53-2.06l9.53-2.06
			L108.35,0z"/>
		<path id="Path_39_1_" class="st1" d="M319.92,113.04l2.26,10.47l10.47,2.26l-10.47,2.26l-2.26,10.47l-2.26-10.47l-10.47-2.26
			l10.47-2.26L319.92,113.04z"/>
		<path id="Path_37_1_" class="st3" d="M78.19,65.44l1.88,8.69l8.69,1.88l-8.69,1.88l-1.88,8.69l-1.88-8.69l-8.69-1.88l8.69-1.88
			L78.19,65.44z"/>
		<g id="Group_3_1_" transform="translate(-308 -309.503)">
			<g id="Group_2_1_" transform="translate(-2424.521 1478.333)">
				<line id="Line_5_1_" class="st4" x1="2743.72" y1="-1054.25" x2="2743.72" y2="-1031.86"/>
				<line id="Line_6_1_" class="st4" x1="2754.91" y1="-1043.06" x2="2732.52" y2="-1043.06"/>
				<line id="Line_7_1_" class="st4" x1="2738.13" y1="-1048.65" x2="2749.31" y2="-1037.47"/>
				<line id="Line_8_1_" class="st4" x1="2749.31" y1="-1048.65" x2="2738.13" y2="-1037.47"/>
			</g>
		</g>
		<g id="Group_4_1_" transform="translate(-20 -401.67)">
			<g id="Group_2-2_1_" transform="translate(308 414.087)">
				<line id="Line_5-2_1_" class="st5" x1="37.3" y1="-0.83" x2="37.3" y2="25.44"/>
				<line id="Line_6-2_1_" class="st5" x1="50.44" y1="12.3" x2="24.16" y2="12.3"/>
				<line id="Line_7-2_1_" class="st5" x1="30.74" y1="5.74" x2="43.86" y2="18.87"/>
				<line id="Line_8-2_1_" class="st5" x1="43.86" y1="5.74" x2="30.74" y2="18.87"/>
			</g>
		</g>
	</g>
</g>
</svg>
